<svg
   version="1.1"
   id="svg1"
   xmlns="http://www.w3.org/2000/svg"
   xmlns:svg="http://www.w3.org/2000/svg">
  <defs
     id="defs1" />
  <path
     id="path1"
     style="fill:#36454f;fill-opacity:1;stroke:none;stroke-width:0.264583;stroke-linecap:square;stroke-linejoin:miter;stroke-dasharray:none;stroke-opacity:1;image-rendering:crisp-edges"
     d="m 4.8412099,0.57257074 a 1.7197917,1.7197917 0 0 0 -1.70842,1.56269996 1.9843751,1.984375 0 0 0 -0.67541,-0.11834 1.9843751,1.984375 0 0 0 -1.98438002,1.98437 1.9843751,1.984375 0 0 0 1.09503002,1.76941 v 2.00194 c 0,0.24435 0.14962,0.4408 0.33538,0.4408 h 4.53719 c 0.18576,0 0.33538,-0.19645 0.33538,-0.4408 v -1.86914 a 1.5875001,1.5874999 0 0 0 1.10897,-1.51153 1.5875001,1.5874999 0 0 0 -1.40766,-1.57665 1.7197917,1.7197917 0 0 0 0.0837,-0.52297 1.7197917,1.7197917 0 0 0 -1.71979,-1.71978996 z" />
  <path
     id="path15"
     style="fill:#fffff0;fill-opacity:1;stroke:#36454f;stroke-width:0.264583;stroke-linecap:square;stroke-linejoin:miter;stroke-dasharray:none;stroke-opacity:1;image-rendering:crisp-edges"
     d="M 4.499479,0.13229174 A 1.7197917,1.7197917 0 0 0 2.7924478,1.6947917 1.9843751,1.984375 0 0 0 2.1166665,1.5756511 1.9843751,1.984375 0 0 0 0.1322915,3.5600261 1.9843751,1.984375 0 0 0 1.2279946,5.3295573 v 2.0019531 c 0,0.2443498 0.1482246,0.4414063 0.3339844,0.4414063 h 4.5371094 c 0.1857598,0 0.3359375,-0.1970565 0.3359375,-0.4414063 V 5.4623698 A 1.5875001,1.5874999 0 0 0 7.5444009,3.9506511 1.5875001,1.5874999 0 0 0 6.1361978,2.3744792 1.7197917,1.7197917 0 0 0 6.2201822,1.8510417 1.7197917,1.7197917 0 0 0 4.499479,0.13229174 Z M 2.5658853,5.698698 c 0.01385,0 0.025391,0.050956 0.025391,0.1132812 v 1.2753906 c 0,0.062325 -0.011541,0.1113282 -0.025391,0.1113282 -0.01385,-1e-7 -0.025391,-0.049003 -0.025391,-0.1113282 V 5.8119792 c 10e-8,-0.062325 0.011541,-0.1132812 0.025391,-0.1132812 z m 1.2773437,0 c 0.01385,0 0.025391,0.050956 0.025391,0.1132812 v 1.2753906 c 0,0.062325 -0.011541,0.1113282 -0.025391,0.1113282 -0.01385,-1e-7 -0.025391,-0.049003 -0.025391,-0.1113282 V 5.8119792 c 0,-0.062325 0.011541,-0.1132812 0.025391,-0.1132812 z m 1.2773438,0 c 0.01385,0 0.025391,0.050956 0.025391,0.1132812 v 1.2753906 c 0,0.062325 -0.011541,0.1113282 -0.025391,0.1113282 -0.01385,-1e-7 -0.025391,-0.049003 -0.025391,-0.1113282 V 5.8119792 c 0,-0.062325 0.011541,-0.1132812 0.025391,-0.1132812 z" />
</svg>
